<?xml version="1.0" standalone="no"?>
<!DOCTYPE svg PUBLIC "-//W3C//DTD SVG 20010904//EN"
 "http://www.w3.org/TR/2001/REC-SVG-20010904/DTD/svg10.dtd">
<svg version="1.0" xmlns="http://www.w3.org/2000/svg"
 width="512.000000pt" height="512.000000pt" viewBox="0 0 512.000000 512.000000"
 preserveAspectRatio="xMidYMid meet">
<metadata>
Created by potrace 1.11, written by Peter Selinger 2001-2013
</metadata>
<g transform="translate(0.000000,512.000000) scale(0.100000,-0.100000)"
fill="#000000" stroke="none">
<path d="M2379 5116 c-2 -2 -35 -6 -74 -9 -224 -20 -441 -74 -749 -189 -68
-26 -290 -146 -391 -212 -464 -305 -814 -742 -1003 -1251 -39 -104 -95 -290
-106 -352 -2 -15 -9 -53 -15 -83 -29 -160 -36 -240 -35 -470 0 -113 3 -232 8
-265 4 -33 10 -76 12 -95 8 -61 20 -123 41 -210 8 -36 16 -69 17 -75 27 -124
120 -364 204 -525 304 -585 828 -1033 1455 -1246 124 -42 288 -83 402 -100 22
-3 51 -8 65 -10 81 -13 176 -19 345 -19 190 0 316 9 425 30 14 3 43 8 65 11
64 9 254 60 348 93 740 256 1324 837 1582 1572 20 57 38 111 41 119 14 49 65
271 69 302 3 21 8 52 11 70 31 213 26 569 -11 783 -74 425 -242 809 -502 1142
-415 531 -1002 873 -1663 968 -19 3 -53 7 -75 11 -46 6 -460 16 -466 10z m441
-310 c14 -2 61 -9 104 -16 197 -30 415 -100 615 -196 180 -88 357 -202 490
-317 164 -142 360 -375 469 -557 162 -271 247 -518 306 -890 8 -48 19 -366 13
-360 -3 3 -8 39 -11 80 -29 346 -183 773 -388 1078 -336 499 -840 843 -1433
978 -154 35 -282 49 -470 49 -351 0 -597 -50 -905 -182 -140 -60 -381 -201
-466 -272 -17 -14 -53 -44 -80 -66 -190 -156 -414 -436 -525 -656 -98 -195
-209 -529 -209 -626 0 -13 -4 -23 -9 -23 -5 0 -7 8 -5 18 2 9 15 78 30 152 67
345 235 704 458 980 80 100 242 261 341 340 343 273 742 437 1190 489 68 8
434 6 485 -3z m-90 -500 c51 -9 146 -26 177 -32 59 -11 242 -68 328 -102 316
-127 613 -354 825 -632 223 -293 374 -675 407 -1030 10 -109 9 -344 -1 -440
-9 -79 -10 -85 -26 -165 -6 -27 -12 -59 -14 -71 -24 -126 -113 -372 -183 -503
-202 -384 -583 -769 -871 -880 -81 -31 -259 -86 -308 -95 -16 -2 -67 -12 -114
-21 -126 -23 -217 -30 -400 -30 -146 0 -303 10 -319 19 -3 2 -29 6 -58 10 -69
8 -257 57 -368 96 -204 71 -474 221 -649 360 -103 82 -284 260 -346 340 -19
25 5 4 53 -46 203 -214 441 -378 692 -476 176 -69 368 -119 521 -135 92 -10
328 -10 434 0 267 25 588 139 830 295 324 209 597 549 724 901 29 80 82 276
90 331 22 159 27 349 13 494 -28 280 -158 614 -325 836 -288 382 -658 601
-1142 676 -65 10 -306 12 -360 3 -25 -4 -63 -10 -85 -12 -199 -23 -469 -130
-660 -263 -97 -68 -117 -85 -220 -189 -186 -188 -308 -401 -386 -673 -17 -59
-22 -89 -38 -225 -8 -64 -6 -298 3 -337 3 -14 11 -52 17 -85 19 -112 51 -210
104 -322 81 -171 152 -273 284 -404 195 -195 392 -303 671 -369 149 -35 393
-33 553 4 332 77 617 283 791 573 152 253 199 566 129 858 -18 79 -70 213
-109 283 -61 111 -175 238 -286 323 -355 267 -842 273 -1178 14 -175 -135
-304 -343 -337 -545 -20 -128 -4 -292 42 -424 57 -165 219 -338 385 -414 106
-48 257 -68 390 -50 113 15 278 104 343 185 10 13 25 29 32 37 31 30 85 145
98 206 17 83 12 228 -9 294 -39 118 -130 209 -241 241 -238 70 -462 -138 -387
-358 28 -83 104 -143 192 -152 94 -10 152 -69 152 -156 0 -80 -87 -153 -171
-144 -241 27 -414 176 -476 410 -3 11 -7 63 -8 115 -3 76 1 110 19 172 78 265
337 444 615 425 78 -5 85 -6 161 -27 149 -40 314 -181 388 -333 55 -113 73
-196 76 -349 8 -333 -173 -624 -481 -777 -45 -23 -87 -41 -93 -41 -5 0 -18 -5
-28 -11 -40 -24 -197 -46 -317 -43 -377 8 -703 222 -883 579 -47 93 -76 192
-100 335 -9 55 -8 223 2 304 10 73 56 230 91 310 26 59 119 207 165 261 41 49
144 150 186 181 21 16 41 31 44 35 12 13 131 80 200 112 175 80 323 111 530
110 361 -2 688 -145 947 -416 142 -149 237 -310 310 -522 47 -138 69 -291 67
-464 -4 -268 -83 -536 -222 -751 -109 -168 -281 -348 -426 -444 -189 -125
-447 -229 -625 -252 -25 -3 -57 -8 -71 -11 -46 -9 -294 -10 -370 -1 -111 12
-211 35 -344 79 -285 95 -501 243 -735 505 -122 135 -266 401 -322 594 -51
171 -73 327 -73 495 0 278 31 441 129 684 55 138 80 187 152 296 108 163 216
287 349 401 245 209 568 365 869 418 17 3 39 8 51 10 11 2 56 7 99 11 44 3 81
8 83 10 5 5 315 -3 352 -9z m-2409 -1528 c-4 -35 -6 -38 -9 -15 -3 26 3 57 10
57 2 0 1 -19 -1 -42z"/>
</g>
</svg>
